<svg width="40" height="41" viewBox="0 0 40 41" fill="none" xmlns="http://www.w3.org/2000/svg">
<g id="ic:outline-add-a-photo">
<path id="Vector" d="M35 10.6117H29.7167L26.6667 7.27832H16.6667V10.6117H25.2L28.25 13.945H35V33.945H8.33333V18.945H5V33.945C5 35.7783 6.5 37.2783 8.33333 37.2783H35C36.8333 37.2783 38.3333 35.7783 38.3333 33.945V13.945C38.3333 12.1117 36.8333 10.6117 35 10.6117ZM13.3333 23.945C13.3333 28.545 17.0667 32.2783 21.6667 32.2783C26.2667 32.2783 30 28.545 30 23.945C30 19.345 26.2667 15.6117 21.6667 15.6117C17.0667 15.6117 13.3333 19.345 13.3333 23.945ZM21.6667 18.945C24.4167 18.945 26.6667 21.195 26.6667 23.945C26.6667 26.695 24.4167 28.945 21.6667 28.945C18.9167 28.945 16.6667 26.695 16.6667 23.945C16.6667 21.195 18.9167 18.945 21.6667 18.945ZM8.33333 10.6117H13.3333V7.27832H8.33333V2.27832H5V7.27832H0V10.6117H5V15.6117H8.33333V10.6117Z" fill="white"/>
</g>
</svg>
