<svg width="14" height="9" viewBox="0 0 14 9" fill="none" xmlns="http://www.w3.org/2000/svg">
<path fill-rule="evenodd" clip-rule="evenodd" d="M7.70734 0.904115C7.51981 0.716644 7.26551 0.611328 7.00034 0.611328C6.73518 0.611328 6.48087 0.716644 6.29334 0.904115L0.636343 6.56111C0.540833 6.65336 0.464651 6.76371 0.412242 6.88571C0.359833 7.00771 0.332246 7.13893 0.331092 7.27171C0.329939 7.40449 0.355241 7.53617 0.405521 7.65907C0.455802 7.78196 0.530055 7.89362 0.623948 7.98751C0.717841 8.0814 0.829492 8.15566 0.952389 8.20594C1.07529 8.25622 1.20696 8.28152 1.33974 8.28036C1.47252 8.27921 1.60374 8.25163 1.72575 8.19922C1.84775 8.14681 1.9581 8.07062 2.05034 7.97511L7.00034 3.02511L11.9503 7.97511C12.1389 8.15727 12.3915 8.25807 12.6537 8.25579C12.9159 8.25351 13.1668 8.14834 13.3522 7.96293C13.5376 7.77753 13.6427 7.52671 13.645 7.26452C13.6473 7.00232 13.5465 6.74972 13.3643 6.56111L7.70734 0.904115Z" fill="#FF4310"/>
</svg>
