<svg width="24" height="24" viewBox="0 0 24 24" fill="none" xmlns="http://www.w3.org/2000/svg">
<g clip-path="url(#clip0_738_1387)">
<path d="M11.6144 9.06316L15.0725 12.2564V12.0947C15.0725 11.2907 14.7277 10.5196 14.114 9.95109C13.5002 9.38256 12.6678 9.06316 11.7998 9.06316H11.6144ZM6.92344 9.87158L8.61435 11.4379C8.5598 11.6501 8.52708 11.8623 8.52708 12.0947C8.52708 12.8988 8.87188 13.6699 9.48564 14.2384C10.0994 14.8069 10.9318 15.1263 11.7998 15.1263C12.0398 15.1263 12.2798 15.096 12.5089 15.0455L14.1998 16.6118C13.4689 16.9453 12.6616 17.1474 11.7998 17.1474C10.3532 17.1474 8.96578 16.615 7.94286 15.6675C6.91993 14.7199 6.34526 13.4348 6.34526 12.0947C6.34526 11.2964 6.56344 10.5486 6.92344 9.87158ZM0.890714 4.28337L3.37799 6.58737L3.8689 7.04211C2.0689 8.35579 0.650714 10.0737 -0.200195 12.0947C1.68708 16.5309 6.34526 19.6737 11.7998 19.6737C13.4907 19.6737 15.1053 19.3705 16.578 18.8248L17.0471 19.2493L20.2325 22.2L21.618 20.9166L2.27617 3M11.7998 7.04211C13.2464 7.04211 14.6338 7.57443 15.6568 8.52199C16.6797 9.46954 17.2544 10.7547 17.2544 12.0947C17.2544 12.7415 17.1125 13.368 16.8616 13.9339L20.058 16.8947C21.6943 15.6316 23.0034 13.9743 23.7998 12.0947C21.9125 7.65853 17.2544 4.51579 11.7998 4.51579C10.2725 4.51579 8.81071 4.76842 7.43617 5.22316L9.80344 7.39579C10.4253 7.17347 11.0907 7.04211 11.7998 7.04211Z" fill="#808080"/>
</g>
<defs>
<clipPath id="clip0_738_1387">
<rect width="24" height="24" fill="white"/>
</clipPath>
</defs>
</svg>
