<svg width="24" height="25" viewBox="0 0 24 25" fill="none" xmlns="http://www.w3.org/2000/svg">
<path d="M18.4 19.7H5.8V9.8H18.4M15.7 3.5V5.3H8.5V3.5H6.7V5.3H5.8C4.801 5.3 4 6.101 4 7.1V19.7C4 20.1774 4.18964 20.6352 4.52721 20.9728C4.86477 21.3104 5.32261 21.5 5.8 21.5H18.4C18.8774 21.5 19.3352 21.3104 19.6728 20.9728C20.0104 20.6352 20.2 20.1774 20.2 19.7V7.1C20.2 6.62261 20.0104 6.16477 19.6728 5.82721C19.3352 5.48964 18.8774 5.3 18.4 5.3H17.5V3.5M16.6 13.4H12.1V17.9H16.6V13.4Z" fill="black"/>
</svg>
