<svg width="90" height="12" viewBox="0 0 90 12" fill="none" xmlns="http://www.w3.org/2000/svg">
<g id="a">
<path id="Vector" d="M30.2979 9.4026L31.5691 11.1988H35.5258L35.4731 11.126L27.8535 0.800781H24.4872L24.4746 0.818367L16.8174 11.1963H20.651L20.6636 11.1762L21.9222 9.40008H30.2979V9.4026ZM26.1176 3.47126L28.5218 6.88285H23.7008L26.1176 3.47126Z" fill="white"/>
<path id="Vector_2" d="M50.5754 7.75727C51.3894 7.05385 51.8039 6.06153 51.8039 4.80793C51.8039 3.55434 51.3919 2.56202 50.5754 1.8586C49.764 1.15769 48.6209 0.803467 47.1789 0.803467H36.7432V11.199H40.0467V8.81491H47.1789C48.6209 8.81491 49.764 8.46069 50.5754 7.75978M40.0467 6.07409V3.54178H46.6689C47.2894 3.54178 47.7441 3.64478 48.0205 3.84827C48.2968 4.05176 48.43 4.37081 48.43 4.82049C48.43 5.27018 48.2968 5.57165 48.0205 5.77011C47.7441 5.97109 47.2869 6.07158 46.6664 6.07158H40.0442L40.0467 6.07409Z" fill="white"/>
<path id="Vector_3" d="M87.7284 1.9792C86.2286 1.06224 84.0078 0.594971 81.1314 0.594971C78.2549 0.594971 76.0441 1.05973 74.5393 1.9792C73.027 2.90118 72.2607 4.26531 72.2607 6.02889C72.2607 7.79246 73.027 9.12393 74.5393 10.0359C76.0441 10.9428 78.2599 11.405 81.1314 11.405C84.0028 11.405 86.2186 10.9453 87.7209 10.0359C89.2332 9.12393 89.9995 7.77487 89.9995 6.02889C89.9995 4.2829 89.2358 2.90118 87.7284 1.9792ZM85.3217 8.02107C84.4425 8.44815 83.0331 8.6642 81.1314 8.6642C79.2296 8.6642 77.8178 8.44815 76.9385 8.02107C76.0592 7.59399 75.6321 6.94333 75.6321 6.02889C75.6321 5.11444 76.0592 4.41856 76.9385 3.98646C77.8178 3.55436 79.2271 3.33579 81.1288 3.33579C83.0306 3.33579 84.4399 3.55436 85.3192 3.98646C86.1985 4.41856 86.6256 5.08681 86.6256 6.02889C86.6256 6.97096 86.1985 7.59399 85.3192 8.02107" fill="white"/>
<path id="Vector_4" d="M54.866 6.57416C54.7053 7.03389 54.3209 7.89809 53.5597 8.54876L53.5471 8.55881H52.6201V11.1715H70.8236V8.55881H69.1279V0.798584H55.381V0.843804L55.3408 2.38881C55.3157 3.36606 55.263 4.20766 55.1876 4.89851C55.0997 5.68484 55.0042 6.18728 54.8685 6.57667M57.3582 8.49098C57.8882 7.78253 58.1947 6.61435 58.3053 5.75769L58.3203 5.63208C58.3932 5.06181 58.4861 4.35588 58.5213 3.52936V3.48916H65.8243V8.55881H57.3054L57.3556 8.49098H57.3582Z" fill="white"/>
<path id="Vector_5" d="M16.1108 11.199L15.9701 11.1161L6.96134 5.69223L15.8973 0.803467H10.4734L10.4634 0.808491L3.30356 4.82552V0.803467H0V11.199H3.30356V6.97346L10.3252 11.199H16.1108Z" fill="white"/>
</g>
</svg>
