<svg width="24" height="25" viewBox="0 0 24 25" fill="none" xmlns="http://www.w3.org/2000/svg">
<path d="M7.2 15.9C6.70557 16.5592 7.17595 17.5 8 17.5H16C16.824 17.5 17.2944 16.5592 16.8 15.9L15.05 13.5667C14.65 13.0333 13.85 13.0333 13.45 13.5667L12.05 15.4333C11.65 15.9667 10.85 15.9667 10.45 15.4333L9.8 14.5667C9.4 14.0333 8.6 14.0333 8.2 14.5667L7.2 15.9ZM4 21.5C3.44772 21.5 3 21.0523 3 20.5V4.5C3 3.94772 3.44772 3.5 4 3.5H20C20.5523 3.5 21 3.94772 21 4.5V20.5C21 21.0523 20.5523 21.5 20 21.5H4Z" fill="black"/>
</svg>
