<svg width="40" height="41" viewBox="0 0 40 41" fill="none" xmlns="http://www.w3.org/2000/svg">
<g clip-path="url(#clip0_2_7554)">
<path fill-rule="evenodd" clip-rule="evenodd" d="M16.2928 21.2069C16.1053 21.0193 16 20.765 16 20.4999C16 20.2347 16.1053 19.9804 16.2928 19.7929L21.9498 14.1359C22.042 14.0403 22.1524 13.9642 22.2744 13.9118C22.3964 13.8593 22.5276 13.8318 22.6604 13.8306C22.7932 13.8295 22.9248 13.8548 23.0477 13.905C23.1706 13.9553 23.2823 14.0296 23.3762 14.1235C23.4701 14.2174 23.5443 14.329 23.5946 14.4519C23.6449 14.5748 23.6702 14.7065 23.669 14.8393C23.6679 14.972 23.6403 15.1033 23.5879 15.2253C23.5355 15.3473 23.4593 15.4576 23.3638 15.5499L18.4138 20.4999L23.3638 25.4499C23.5459 25.6385 23.6467 25.8911 23.6445 26.1533C23.6422 26.4155 23.537 26.6663 23.3516 26.8517C23.1662 27.0371 22.9154 27.1423 22.6532 27.1445C22.391 27.1468 22.1384 27.046 21.9498 26.8639L16.2928 21.2069Z" fill="white"/>
</g>
<defs>
<clipPath id="clip0_2_7554">
<rect width="24" height="24" fill="white" transform="translate(8 8.5)"/>
</clipPath>
</defs>
</svg>
