<svg width="24" height="24" viewBox="0 0 24 24" fill="none" xmlns="http://www.w3.org/2000/svg">
<path d="M12 15.8571C11.11 15.8571 10.24 15.6309 9.49993 15.2071C8.75991 14.7833 8.18314 14.1809 7.84254 13.4761C7.50195 12.7713 7.41283 11.9957 7.58647 11.2475C7.7601 10.4993 8.18868 9.81202 8.81802 9.27259C9.44736 8.73316 10.2492 8.3658 11.1221 8.21697C11.995 8.06814 12.8998 8.14453 13.7221 8.43646C14.5443 8.7284 15.2471 9.22278 15.7416 9.85709C16.2361 10.4914 16.5 11.2371 16.5 12C16.5 13.023 16.0259 14.0041 15.182 14.7274C14.3381 15.4508 13.1935 15.8571 12 15.8571ZM12 6C5 6 2 12 2 12C2 12 5 18 12 18C19 18 22 12 22 12C22 12 19 6 12 6Z" fill="#808080"/>
<path d="M12 14.5C13.6569 14.5 15 13.3807 15 12C15 10.6193 13.6569 9.5 12 9.5C10.3431 9.5 9 10.6193 9 12C9 13.3807 10.3431 14.5 12 14.5Z" fill="#808080"/>
</svg>
