<svg width="24" height="25" viewBox="0 0 24 25" fill="none" xmlns="http://www.w3.org/2000/svg">
<path d="M21.0721 9.06797V9.13393C21.0721 9.91103 21.0721 10.3005 20.885 10.6186C20.698 10.9366 20.3573 11.1255 19.6778 11.5041L18.9613 11.9017C19.4546 10.2318 19.62 8.43725 19.6805 6.90293L19.6896 6.70324L19.6914 6.65625C20.2796 6.86046 20.6103 7.01317 20.8164 7.29871C21.0721 7.65383 21.0721 8.12551 21.0721 9.06797ZM3 9.06797V9.13393C3 9.91103 3 10.3005 3.18705 10.6186C3.37409 10.9366 3.71475 11.1255 4.39426 11.5041L5.11172 11.9017C4.61745 10.2318 4.45209 8.43725 4.39155 6.90293L4.38251 6.70324L4.38161 6.65625C3.79246 6.86046 3.46174 7.01317 3.25572 7.29871C3 7.65383 3 8.12641 3 9.06797Z" fill="black"/>
<path fill-rule="evenodd" clip-rule="evenodd" d="M15.9911 3.81376C14.6837 3.59949 13.3608 3.49461 12.036 3.50021C10.4249 3.50021 9.09657 3.64208 8.08091 3.81376C7.05171 3.98726 6.53756 4.074 6.10744 4.60351C5.67823 5.13303 5.70082 5.70501 5.746 6.84897C5.90232 10.7778 6.74991 15.6862 11.3583 16.1199V19.3133H10.0661C9.85732 19.3134 9.65499 19.3859 9.49355 19.5183C9.33211 19.6507 9.22153 19.835 9.1806 20.0398L9.00891 20.8946H6.61436C6.43463 20.8946 6.26225 20.966 6.13516 21.0931C6.00806 21.2202 5.93666 21.3926 5.93666 21.5723C5.93666 21.752 6.00806 21.9244 6.13516 22.0515C6.26225 22.1786 6.43463 22.25 6.61436 22.25H17.4576C17.6374 22.25 17.8097 22.1786 17.9368 22.0515C18.0639 21.9244 18.1353 21.752 18.1353 21.5723C18.1353 21.3926 18.0639 21.2202 17.9368 21.0931C17.8097 20.966 17.6374 20.8946 17.4576 20.8946H15.0631L14.8914 20.0398C14.8504 19.835 14.7399 19.6507 14.5784 19.5183C14.417 19.3859 14.2147 19.3134 14.0058 19.3133H12.7137V16.1199C17.3221 15.6862 18.1706 10.7787 18.326 6.84897C18.3712 5.70501 18.3947 5.13212 17.9645 4.60351C17.5344 4.074 17.0203 3.98726 15.9911 3.81376ZM12.7471 6.94023C12.871 6.99153 12.9768 7.07841 13.0513 7.18987C13.1258 7.30133 13.1655 7.43238 13.1655 7.56643V11.1808C13.1655 11.3606 13.0941 11.533 12.967 11.6601C12.8399 11.7872 12.6675 11.8586 12.4878 11.8586C12.3081 11.8586 12.1357 11.7872 12.0086 11.6601C11.8815 11.533 11.8101 11.3606 11.8101 11.1808V9.20196L11.6113 9.40075C11.5493 9.46733 11.4744 9.52074 11.3913 9.55778C11.3082 9.59482 11.2184 9.61474 11.1274 9.61634C11.0364 9.61795 10.9461 9.60121 10.8617 9.56712C10.7773 9.53304 10.7006 9.4823 10.6363 9.41795C10.5719 9.3536 10.5212 9.27694 10.4871 9.19256C10.453 9.10817 10.4363 9.01778 10.4379 8.92679C10.4395 8.83579 10.4594 8.74605 10.4964 8.66292C10.5335 8.57979 10.5869 8.50497 10.6535 8.44293L12.0089 7.08752C12.1036 6.99274 12.2243 6.92816 12.3557 6.90195C12.4871 6.87573 12.6233 6.88905 12.7471 6.94023Z" fill="black"/>
</svg>
