<svg width="24" height="25" viewBox="0 0 24 25" fill="none" xmlns="http://www.w3.org/2000/svg">
<g id="Property 1=home">
<path id="Vector" d="M5 21.5C4.44772 21.5 4 21.0523 4 20.5V10C4 9.68524 4.14819 9.38885 4.4 9.2L11.4 3.95C11.7556 3.68333 12.2444 3.68333 12.6 3.95L19.6 9.2C19.8518 9.38885 20 9.68524 20 10V20.5C20 21.0523 19.5523 21.5 19 21.5H15C14.4477 21.5 14 21.0523 14 20.5V15.5C14 14.9477 13.5523 14.5 13 14.5H11C10.4477 14.5 10 14.9477 10 15.5V20.5C10 21.0523 9.55228 21.5 9 21.5H5Z" fill="black"/>
</g>
</svg>
