<svg width="48" height="41" viewBox="0 0 48 41" fill="none" xmlns="http://www.w3.org/2000/svg">
<path d="M0.5 4C0.5 2.067 2.067 0.5 4 0.5H44C45.933 0.5 47.5 2.067 47.5 4V37C47.5 38.933 45.933 40.5 44 40.5H4C2.067 40.5 0.5 38.933 0.5 37V4Z" fill="#FF4310"/>
<path d="M0.5 4C0.5 2.067 2.067 0.5 4 0.5H44C45.933 0.5 47.5 2.067 47.5 4V37C47.5 38.933 45.933 40.5 44 40.5H4C2.067 40.5 0.5 38.933 0.5 37V4Z" stroke="#FF4310"/>
<path d="M24 27.5V13.5M24 13.5L17 20.5M24 13.5L31 20.5" stroke="#090200" stroke-width="2.5" stroke-linecap="round" stroke-linejoin="round"/>
</svg>
