<svg width="24" height="25" viewBox="0 0 24 25" fill="none" xmlns="http://www.w3.org/2000/svg">
<g id="mingcute:left-line" clip-path="url(#clip0_417_8763)">
<g id="Group">
<path id="Vector" fill-rule="evenodd" clip-rule="evenodd" d="M15.7072 13.3187C15.8947 13.1311 16 12.8768 16 12.6117C16 12.3465 15.8947 12.0922 15.7072 11.9047L10.0502 6.24767C9.95797 6.15216 9.84762 6.07598 9.72562 6.02357C9.60361 5.97116 9.47239 5.94357 9.33961 5.94242C9.20684 5.94127 9.07516 5.96657 8.95226 6.01685C8.82936 6.06713 8.71771 6.14138 8.62382 6.23528C8.52993 6.32917 8.45567 6.44082 8.40539 6.56372C8.35511 6.68661 8.32981 6.81829 8.33096 6.95107C8.33212 7.08385 8.3597 7.21507 8.41211 7.33708C8.46452 7.45908 8.5407 7.56942 8.63621 7.66167L13.5862 12.6117L8.63621 17.5617C8.45406 17.7503 8.35326 18.0029 8.35554 18.2651C8.35782 18.5273 8.46299 18.7781 8.64839 18.9635C8.8338 19.1489 9.08462 19.2541 9.34681 19.2563C9.60901 19.2586 9.86161 19.1578 10.0502 18.9757L15.7072 13.3187Z" fill="white"/>
</g>
</g>
<defs>
<clipPath id="clip0_417_8763">
<rect width="24" height="24" fill="white" transform="matrix(-1 0 0 1 24 0.611328)"/>
</clipPath>
</defs>
</svg>
